<svg xmlns="http://www.w3.org/2000/svg" xmlns:xlink="http://www.w3.org/1999/xlink" version="1.1" data-diagram-type="DESCRIPTION" style="width:1468px;height:1099px;background:#FFFFFF;" width="1468px" height="1099px" viewBox="0 0 1468 1099" zoomAndPan="magnify" preserveAspectRatio="none" contentStyleType="text/css"><?plantuml 1.2026.8beta1?><defs/><g font-family="sans-serif" lengthAdjust="spacing"><g class="title" data-source-line="1"><text x="413.653" y="22.995" fill="#000" font-size="14" textLength="633.944" font-weight="700">Strijder camera/display links — alternative functional circuits, not selected BOM</text></g><!--entity rail--><g class="entity" data-qualified-name="rail" id="ent0001" data-source-line="4"><rect x="976.3" y="44.297" width="171.43" height="52.594" fill="#F1F1F1" style="stroke:#181818;stroke-width:0.5;" rx="2.5" ry="2.5"/><text x="986.3" y="67.292" fill="#000" font-size="14" textLength="151.43">Protected camera rail</text><text x="986.3" y="83.589" fill="#000" font-size="14" textLength="150.24">Voltage / budget TBD</text></g><!--entity limit--><g class="entity" data-qualified-name="limit" id="ent0002" data-source-line="5"><rect x="934.92" y="173.887" width="254.186" height="52.594" fill="#F1F1F1" style="stroke:#181818;stroke-width:0.5;" rx="2.5" ry="2.5"/><text x="944.92" y="196.882" fill="#000" font-size="14" textLength="170.249">U301i branch protection</text><text x="944.92" y="213.179" fill="#000" font-size="14" textLength="234.186">Per-camera limit / fault telemetry</text></g><!--entity poc--><g class="entity" data-qualified-name="poc" id="ent0003" data-source-line="6"><rect x="839.6" y="303.477" width="234.833" height="68.891" fill="#F1F1F1" style="stroke:#181818;stroke-width:0.5;" rx="2.5" ry="2.5"/><text x="849.6" y="326.472" fill="#000" font-size="14" textLength="167.966">L301i PoC filter network</text><text x="849.6" y="342.769" fill="#000" font-size="14" textLength="214.833">Bias injection / media coupling</text><text x="849.6" y="359.066" fill="#000" font-size="14" textLength="198.249">Values require link selection</text></g><!--entity connector--><g class="entity" data-qualified-name="connector" id="ent0004" data-source-line="7"><rect x="559.24" y="449.367" width="183.557" height="52.594" fill="#F1F1F1" style="stroke:#181818;stroke-width:0.5;" rx="2.5" ry="2.5"/><text x="569.24" y="472.362" fill="#000" font-size="14" textLength="162.777">J301i coax camera port</text><text x="569.24" y="488.659" fill="#000" font-size="14" textLength="163.557">i = 1..4 historical count</text></g><!--entity camera--><g class="entity" data-qualified-name="camera" id="ent0005" data-source-line="8"><rect x="458.78" y="578.967" width="218.475" height="68.891" fill="#F1F1F1" style="stroke:#181818;stroke-width:0.5;" rx="2.5" ry="2.5"/><text x="468.78" y="601.962" fill="#000" font-size="14" textLength="120.299">Remote camera i</text><text x="468.78" y="618.259" fill="#000" font-size="14" textLength="194.517">PoC extraction + regulation</text><text x="468.78" y="634.556" fill="#000" font-size="14" textLength="198.475">Sensor + matched serializer</text></g><!--entity hub--><g class="entity" data-qualified-name="hub" id="ent0006" data-source-line="9"><rect x="712.22" y="578.967" width="265.588" height="68.891" fill="#F1F1F1" style="stroke:#181818;stroke-width:0.5;" rx="2.5" ry="2.5"/><text x="722.22" y="601.962" fill="#000" font-size="14" textLength="236.216">U302 compatible deserializer hub</text><text x="722.22" y="618.259" fill="#000" font-size="14" textLength="205.967">CSI output to selected carrier</text><text x="722.22" y="634.556" fill="#000" font-size="14" textLength="245.588">DS90UB960-Q1 is an example only</text></g><!--entity core--><g class="entity" data-qualified-name="core" id="ent0007" data-source-line="10"><rect x="1063.58" y="724.857" width="240.862" height="68.891" fill="#F1F1F1" style="stroke:#181818;stroke-width:0.5;" rx="2.5" ry="2.5"/><text x="1073.58" y="747.852" fill="#000" font-size="14" textLength="192.028">Vision Core / NVIDIA carrier</text><text x="1073.58" y="764.149" fill="#000" font-size="14" textLength="207.02">Driver / capture / timestamps</text><text x="1073.58" y="780.446" fill="#000" font-size="14" textLength="220.862">Encoding and evidence storage</text></g><!--entity panela--><g class="entity" data-qualified-name="panela" id="ent0008" data-source-line="11"><rect x="1164.96" y="870.747" width="266.107" height="68.891" fill="#F1F1F1" style="stroke:#181818;stroke-width:0.5;" rx="2.5" ry="2.5"/><text x="1174.96" y="893.742" fill="#000" font-size="14" textLength="246.107">Option A: integrated Windows MDT</text><text x="1174.96" y="910.039" fill="#000" font-size="14" textLength="229.831">Protected power + local network</text><text x="1174.96" y="926.336" fill="#000" font-size="14" textLength="204.429">Cadmium on panel computer</text></g><!--entity pcb--><g class="entity" data-qualified-name="pcb" id="ent0009" data-source-line="12"><rect x="838.53" y="878.897" width="290.977" height="52.594" fill="#F1F1F1" style="stroke:#181818;stroke-width:0.5;" rx="2.5" ry="2.5"/><text x="848.53" y="901.892" fill="#000" font-size="14" textLength="270.977">Option B: separate Windows computer</text><text x="848.53" y="918.189" fill="#000" font-size="14" textLength="229.831">Protected power + local network</text></g><!--entity panelb--><g class="entity" data-qualified-name="panelb" id="ent0010" data-source-line="13"><rect x="849.09" y="1016.637" width="269.847" height="68.891" fill="#F1F1F1" style="stroke:#181818;stroke-width:0.5;" rx="2.5" ry="2.5"/><text x="859.09" y="1039.632" fill="#000" font-size="14" textLength="158.888">Option B touch display</text><text x="859.09" y="1055.929" fill="#000" font-size="14" textLength="249.847">Supported video + touch interfaces</text><text x="859.09" y="1072.226" fill="#000" font-size="14" textLength="235.519">40-position concept not validated</text></g><!--entity aux--><g class="entity" data-qualified-name="aux" id="ent0011" data-source-line="14"><rect x="443.45" y="870.747" width="245.135" height="68.891" fill="#F1F1F1" style="stroke:#181818;stroke-width:0.5;" rx="2.5" ry="2.5"/><text x="453.45" y="893.742" fill="#000" font-size="14" textLength="115.186">Auxiliary display</text><text x="453.45" y="910.039" fill="#000" font-size="14" textLength="225.135">Eight-position historical concept</text><text x="453.45" y="926.336" fill="#000" font-size="14" textLength="179.648">Transport and power TBD</text></g><!--entity independent--><g class="entity" data-qualified-name="independent" id="ent0012" data-source-line="15"><rect x="258.26" y="724.857" width="301.497" height="68.891" fill="#F1F1F1" style="stroke:#181818;stroke-width:0.5;" rx="2.5" ry="2.5"/><text x="268.26" y="747.852" fill="#000" font-size="14" textLength="254.837">Optional independent live-view path</text><text x="268.26" y="764.149" fill="#000" font-size="14" textLength="266.588">Dedicated compatible receiver/output</text><text x="268.26" y="780.446" fill="#000" font-size="14" textLength="281.497">Required only if independence specified</text></g><g class="entity" data-qualified-name="GMN26" id="ent0027" data-source-line="30"><path d="M6,585.707 L6,641.105 A0,0 0 0 0 6,641.105 L424.027,641.105 A0,0 0 0 0 424.027,641.105 L424.027,595.707 L414.027,585.707 L306.33,585.707 L568.24,502.437 L298.33,585.707 L6,585.707 A0,0 0 0 0 6,585.707" style="stroke:#181818;stroke-width:0.5;" fill="#FEFFDD"/><path d="M414.027,585.707 L414.027,595.707 L424.027,595.707 L414.027,585.707" style="stroke:#181818;stroke-width:0.5;" fill="#FEFFDD"/><text x="12" y="602.774" fill="#000" font-size="13" textLength="350.587">FAKRA identifies a connector family, not link protocol.</text><text x="12" y="617.907" fill="#000" font-size="13" textLength="397.027">Coax return/shield and chassis bonds require explicit design.</text><text x="12" y="633.039" fill="#000" font-size="13" textLength="367.593">No passive splitter or arbitrary voltage injection implied.</text></g><g class="entity" data-qualified-name="GMN29" id="ent0030" data-source-line="35"><path d="M595.24,731.597 L595.24,786.995 A0,0 0 0 0 595.24,786.995 L1028.793,786.995 A0,0 0 0 0 1028.793,786.995 L1028.793,741.597 L1018.793,731.597 L822.16,731.597 L837.28,648.147 L814.16,731.597 L595.24,731.597 A0,0 0 0 0 595.24,731.597" style="stroke:#181818;stroke-width:0.5;" fill="#FEFFDD"/><path d="M1018.793,731.597 L1018.793,741.597 L1028.793,741.597 L1018.793,731.597" style="stroke:#181818;stroke-width:0.5;" fill="#FEFFDD"/><text x="601.24" y="748.664" fill="#000" font-size="13" textLength="412.553">Alternative: separate camera power, network cameras, or USB.</text><text x="601.24" y="763.797" fill="#000" font-size="13" textLength="370.786">These are different circuits, not simultaneously required.</text><text x="601.24" y="778.929" fill="#000" font-size="13" textLength="405.628">Main dashcam head may include camera 1; count unresolved.</text></g><g class="entity" data-qualified-name="GMN32" id="ent0033" data-source-line="40"><path d="M353.67,1030.947 L353.67,1071.213 A0,0 0 0 0 353.67,1071.213 L778.356,1071.213 A0,0 0 0 0 778.356,1071.213 L778.356,1040.947 L768.356,1030.947 L570.01,1030.947 L566.01,939.927 L562.01,1030.947 L353.67,1030.947 A0,0 0 0 0 353.67,1030.947" style="stroke:#181818;stroke-width:0.5;" fill="#FEFFDD"/><path d="M768.356,1030.947 L768.356,1040.947 L778.356,1040.947 L768.356,1030.947" style="stroke:#181818;stroke-width:0.5;" fill="#FEFFDD"/><text x="359.67" y="1048.014" fill="#000" font-size="13" textLength="357.817">Solid core-to-display route is not independent of Linux.</text><text x="359.67" y="1063.147" fill="#000" font-size="13" textLength="403.686">No released cavity numbers, component values, or footprints.</text></g><!--link rail to limit--><g class="link" data-entity-1="ent0001" data-entity-2="ent0002" id="lnk13" data-source-line="16" data-link-type="dependency"><path d="M1062.01,97.107 C1062.01,119.357 1062.01,146.477 1062.01,168.717" style="stroke:#181818;stroke-width:1;" fill="none" id="rail-to-limit"/><polygon points="1062.01,173.717,1066.01,164.717,1062.01,168.717,1058.01,164.717,1062.01,173.717" fill="#181818" style="stroke:#181818;stroke-width:1;stroke-linejoin:miter;stroke-miterlimit:10;"/><text x="1063.01" y="139.954" fill="#000" font-size="13" textLength="94.428">CAM_i_SUPPLY</text></g><!--link limit to poc--><g class="link" data-entity-1="ent0002" data-entity-2="ent0003" id="lnk14" data-source-line="17" data-link-type="dependency"><path d="M1042.26,226.717 C1025.57,248.297 1004.579,275.432 986.279,299.092" style="stroke:#181818;stroke-width:1;" fill="none" id="limit-to-poc"/><polygon points="983.22,303.047,991.89,298.375,986.279,299.092,985.562,293.481,983.22,303.047" fill="#181818" style="stroke:#181818;stroke-width:1;stroke-linejoin:miter;stroke-miterlimit:10;"/><text x="1019.01" y="269.544" fill="#000" font-size="13" textLength="86.36">protected DC</text></g><!--link poc to connector--><g class="link" data-entity-1="ent0003" data-entity-2="ent0004" id="lnk15" data-source-line="18" data-link-type="dependency"><path d="M880.59,372.827 C827.3,396.467 761.89,425.479 713.27,447.049" style="stroke:#181818;stroke-width:1;" fill="none" id="poc-to-connector"/><polygon points="708.7,449.077,718.549,449.083,713.27,447.049,715.305,441.771,708.7,449.077" fill="#181818" style="stroke:#181818;stroke-width:1;stroke-linejoin:miter;stroke-miterlimit:10;"/><text x="814.01" y="415.434" fill="#000" font-size="13" textLength="186.869">CAM_i_COAX power + media</text></g><!--link connector to camera--><g class="link" data-entity-1="ent0004" data-entity-2="ent0005" id="lnk16" data-source-line="19" data-link-type="dependency"><path d="M623.71,502.317 C615.35,511.147 606.62,521.467 600.01,531.967 C590.97,546.337 585.353,558.989 580.023,573.899" style="stroke:#181818;stroke-width:1;" fill="none" id="connector-to-camera"/><polygon points="578.34,578.607,585.136,571.479,580.023,573.899,577.603,568.786,578.34,578.607" fill="#181818" style="stroke:#181818;stroke-width:1;stroke-linejoin:miter;stroke-miterlimit:10;"/><text x="601.01" y="545.034" fill="#000" font-size="13" textLength="163.021">compatible coax channel</text></g><!--link connector to hub--><g class="link" data-entity-1="ent0004" data-entity-2="ent0006" id="lnk17" data-source-line="20" data-link-type="dependency"><path d="M717.15,502.357 C734.76,510.587 753.25,520.567 769.01,531.967 C787.23,545.137 801.388,559.294 814.958,574.894" style="stroke:#181818;stroke-width:1;" fill="none" id="connector-to-hub"/><polygon points="818.24,578.667,815.351,569.251,814.958,574.894,809.315,574.502,818.24,578.667" fill="#181818" style="stroke:#181818;stroke-width:1;stroke-linejoin:miter;stroke-miterlimit:10;"/><text x="789.01" y="545.034" fill="#000" font-size="13" textLength="298.454">AC-coupled media through qualified front end</text></g><!--link hub to core--><g class="link" data-entity-1="ent0006" data-entity-2="ent0007" id="lnk18" data-source-line="21" data-link-type="dependency"><path d="M869.75,648.197 C883.43,664.577 901.74,683.187 922.01,694.857 C971.15,723.147 990.9,711.507 1046.01,724.857 C1051.64,726.217 1052.541,726.44 1058.361,727.85" style="stroke:#181818;stroke-width:1;" fill="none" id="hub-to-core"/><polygon points="1063.22,729.027,1055.415,723.02,1058.361,727.85,1053.531,730.795,1063.22,729.027" fill="#181818" style="stroke:#181818;stroke-width:1;stroke-linejoin:miter;stroke-miterlimit:10;"/><text x="923.01" y="690.924" fill="#000" font-size="13" textLength="197.59">CSI lanes / control / link status</text></g><!--link limit to core--><g class="link" data-entity-1="ent0002" data-entity-2="ent0007" id="lnk19" data-source-line="22" data-link-type="dependency"><path d="M1090.32,226.797 C1115.04,252.107 1147.01,293.267 1147.01,336.927 C1147.01,336.927 1147.01,336.927 1147.01,614.407 C1147.01,653.097 1158.003,691.151 1168.523,719.921" style="stroke:#181818;stroke-width:1;" fill="none" id="limit-to-core"/><polygon points="1170.24,724.617,1170.906,714.791,1168.523,719.921,1163.392,717.538,1170.24,724.617" fill="#181818" style="stroke:#181818;stroke-width:1;stroke-linejoin:miter;stroke-miterlimit:10;"/><text x="1148.01" y="480.234" fill="#000" font-size="13" textLength="86.868">CAM_i_FAULT</text></g><!--link core to panela--><g class="link" data-entity-1="ent0007" data-entity-2="ent0008" id="lnk20" data-source-line="23" data-link-type="dependency"><path d="M1230.15,794.087 C1240.45,802.987 1250.75,813.107 1259.01,823.747 C1269.86,837.727 1276.787,850.621 1283.347,865.711" style="stroke:#181818;stroke-width:1;" fill="none" id="core-to-panela"/><polygon points="1285.34,870.297,1285.42,860.448,1283.347,865.711,1278.084,863.638,1285.34,870.297" fill="#181818" style="stroke:#181818;stroke-width:1;stroke-linejoin:miter;stroke-miterlimit:10;"/><text x="1270.01" y="836.814" fill="#000" font-size="13" textLength="182.241">MDT_DATA — choose A or B</text></g><!--link core to pcb--><g class="link" data-entity-1="ent0007" data-entity-2="ent0009" id="lnk21" data-source-line="24" data-link-type="dependency"><path d="M1114.05,794.197 C1098.08,803.027 1081.54,813.077 1067.01,823.747 C1044.85,840.017 1026.068,858.267 1010.208,875.107" style="stroke:#181818;stroke-width:1;" fill="none" id="core-to-pcb"/><polygon points="1006.78,878.747,1015.862,874.938,1010.208,875.107,1010.039,869.453,1006.78,878.747" fill="#181818" style="stroke:#181818;stroke-width:1;stroke-linejoin:miter;stroke-miterlimit:10;"/><text x="1068.01" y="836.814" fill="#000" font-size="13" textLength="182.241">MDT_DATA — choose A or B</text></g><!--link pcb to panelb--><g class="link" data-entity-1="ent0009" data-entity-2="ent0010" id="lnk22" data-source-line="25" data-link-type="dependency"><path d="M984.01,931.917 C984.01,955.437 984.01,985.397 984.01,1011.187" style="stroke:#181818;stroke-width:1;" fill="none" id="pcb-to-panelb"/><polygon points="984.01,1016.187,988.01,1007.187,984.01,1011.187,980.01,1007.187,984.01,1016.187" fill="#181818" style="stroke:#181818;stroke-width:1;stroke-linejoin:miter;stroke-miterlimit:10;"/><text x="985.01" y="982.704" fill="#000" font-size="13" textLength="209.631">DISPLAY_VIDEO + TOUCH_DATA</text></g><!--link core to aux--><g class="link" data-entity-1="ent0007" data-entity-2="ent0011" id="lnk23" data-source-line="26" data-link-type="dependency"><path d="M1063.4,790.417 C1057.53,791.597 1051.72,792.717 1046.01,793.747 C934.57,813.787 903.28,798.007 793.01,823.747 C743.75,835.247 695.006,852.05 652.376,868.47" style="stroke:#181818;stroke-width:1;" fill="none" id="core-to-aux"/><polygon points="647.71,870.267,657.546,870.765,652.376,868.47,654.671,863.299,647.71,870.267" fill="#181818" style="stroke:#181818;stroke-width:1;stroke-linejoin:miter;stroke-miterlimit:10;"/><text x="794.01" y="836.814" fill="#000" font-size="13" textLength="244.962">AUX_VIDEO — core-dependent option</text></g><!--link camera to independent--><g class="link" data-entity-1="ent0005" data-entity-2="ent0012" id="lnk24" data-source-line="27" data-link-type="dependency"><path d="M530.74,648.147 C505.31,671.157 475.477,698.152 450.037,721.172" style="stroke:#181818;stroke-width:1;stroke-dasharray:7,7;" fill="none" id="camera-to-independent"/><polygon points="446.33,724.527,455.687,721.454,450.037,721.172,450.32,715.522,446.33,724.527" fill="#181818" style="stroke:#181818;stroke-width:1;stroke-linejoin:miter;stroke-miterlimit:10;"/><text x="495.01" y="690.924" fill="#000" font-size="13" textLength="220.219">only supported separate topology</text></g><!--link independent to aux--><g class="link" data-entity-1="ent0012" data-entity-2="ent0011" id="lnk25" data-source-line="28" data-link-type="dependency"><path d="M445.82,794.037 C470.93,817.047 500.364,844.018 525.474,867.038" style="stroke:#181818;stroke-width:1;stroke-dasharray:7,7;" fill="none" id="independent-to-aux"/><polygon points="529.16,870.417,525.229,861.387,525.474,867.038,519.823,867.283,529.16,870.417" fill="#181818" style="stroke:#181818;stroke-width:1;stroke-linejoin:miter;stroke-miterlimit:10;"/><text x="494.01" y="836.814" fill="#000" font-size="13" textLength="179.486">independent option instead</text></g><?plantuml-src XLRRRXit47tVho3osaYssw10N3J0Id9GjtRiMfAR008CYilLJimbDxp8Kf_w4Vt2VaaFkQlLsWtI5q4WXsTcpfoPMKzUIJRtbZuNqZB1QsdvIK6kKNpF5Eb7n_xvws_6bPTMSqzRoSgWXIUZkMA2h0ZatMkcZMTEAYcyBDZavZhpfc7UiBNntjIi82lJeymzacwuvJKJfcwCbjhF_Hv1H0EkDqfc_J_swjOQtsAseJ7BIQtqlL6URoGxOUjGRAHdYydi5UCkNG_VBtyuFIEsjboBYZKj6A9OwLjfHnsaefeye4eUb6SUITJIstt2ItT3mAi4U6kchAJ82TFIFndxkD8JWZtfpwq7uDMo88uiGmCUDmYQgo0HelmIm4OYjwCCzibROyJGrw_9bp1yTyY-CTQlDB6VsTbu_8PLvBon968bJD0-WGYZDJ2C7KBToHgv7s08-IC3kVEMjz5-Xx0sGV6MdBdKpbWSrjoB2kGxQOah-bFQraM2US7pzwcWG5ZZe9379wmAwvMUpY-P2Ru9FigYbuhWrfAqApsRlprTJjx-U3hw_OoHOrmZFbut03DQjTK0qD3fFRaO-zJOg8GFzvUpotm0Q25MYml16n-IYQTQEWzGjz8NMfW2TO6ZWiaj5L8BoIAV45P7f7scnPicKPMVeyfURYoFyVz1kZ1FZbtF5Y2rLsjZdcGaK9bOd5uZKrxK56fan1gkfKgK1T_HcexuLrnEpa5OR1gKyE3myF9_lRRGOlqrN9GYe36wVaVXGnCb1gX8Y05KQn0JjYKN4iIzEHqrnb42WDQ4R7pg_YsgNKHEZhayyvc77IdYTdzqTq6RoX_Hdiav0Q_q0gthOaofJcs2XsRdOVVVfF0O3Cb6uaTxTDbMZhOadn2Hhw0ADAL8bHke5I0oYkMa5UXAtxKzMYJfCIe7a54aZHHKKfVfm5iMnmyRZTvrC-MSJVFh1tgOBszlhpvbxM6yHgFZikaBDvjcyIXUzUtRlvxUv1_xqgQXaXsDqfEsgy-7ARLJe-AmKo_CqKMmpQUZD9hWlHrKlh8cR2hs9Q2GCJjMMWC6aLeMdxJ1eOyG5tfPeS0kTXTih57urmuqptrmWrGFJr8gx_FbrI9BHuc697ZSediUPlaYJxj6LCOuoNA6U2S3Ox7-jcKqw56ZxUnoVdkLVth0OBYu0NUBc-Nqb_JwY0eDHJAM7pkh18lBqL529kagwrWUZzyz4zXvgn7NTqxVgTY0HfdDFXkQn-Ujp-5fwm97pajUP3hEwcvpcd8mqT_dlztbBCug7qk45XZefUGrgNsxYbCjehwCC6gSJQCQhCGOr2Uk8gcAr4xGXtEOjMkZY-DYaZiiB87oOOZJHe-p3mQSmd0RfQ_8nxK7Vzok2Gi43Rtjrl5n-n46DoGqpf1W34Y-p2cEylpuKJ4OSFsgW-1V7uPOTueF3JXUpYVZR55XnI06x1egIsaZZIy-HwZ6GeSOJ72eK9SUOhhcf5d1NGLGLe5mx3bqkHOg5Bt_iv_QdSg2jj8PjVrMDd4IpGtcNwiTRqQ7JoZq52p1SOpeMSbBTaKwx1Az5kkGkxGEj-JtJ8TwBItowB-HudZ5rqFAlpJ6DnOpsHqZ-XS0?></g></svg>