<svg xmlns="http://www.w3.org/2000/svg" xmlns:xlink="http://www.w3.org/1999/xlink" version="1.1" data-diagram-type="DESCRIPTION" style="width:1368px;height:819px;background:#FFFFFF;" width="1368px" height="819px" viewBox="0 0 1368 819" zoomAndPan="magnify" preserveAspectRatio="none" contentStyleType="text/css"><?plantuml 1.2026.8beta1?><defs/><g font-family="sans-serif" lengthAdjust="spacing"><g class="title" data-source-line="1"><text x="437.47" y="22.995" fill="#000" font-size="14" textLength="486.268" font-weight="700">Strijder repeated peripheral branch - conceptual connectivity</text></g><!--entity RAIL--><g class="entity" data-qualified-name="RAIL" id="ent0001" data-source-line="6"><rect x="771.74" y="52.447" width="219.753" height="52.594" fill="#F1F1F1" style="stroke:#181818;stroke-width:0.5;" rx="2.5" ry="2.5"/><text x="781.74" y="75.442" fill="#000" font-size="14" textLength="75.564">VPERIPH_n</text><text x="781.74" y="91.739" fill="#000" font-size="14" textLength="199.753">Selected regulated input rail</text></g><!--entity CIN--><g class="entity" data-qualified-name="CIN" id="ent0002" data-source-line="7"><rect x="1110.37" y="305.377" width="178.505" height="52.594" fill="#F1F1F1" style="stroke:#181818;stroke-width:0.5;" rx="2.5" ry="2.5"/><text x="1120.37" y="328.372" fill="#000" font-size="14" textLength="36.497">C201</text><text x="1120.37" y="344.669" fill="#000" font-size="14" textLength="158.505">Local input decoupling</text></g><!--entity SW--><g class="entity" data-qualified-name="SW" id="ent0003" data-source-line="8"><rect x="265" y="190.187" width="295.235" height="85.188" fill="#F1F1F1" style="stroke:#181818;stroke-width:0.5;" rx="2.5" ry="2.5"/><text x="275" y="213.182" fill="#000" font-size="14" textLength="36.969">U201</text><text x="275" y="229.479" fill="#000" font-size="14" textLength="197.251">High-side protection / eFuse</text><text x="275" y="245.776" fill="#000" font-size="14" textLength="275.235">Current limit + short shutdown + ramp</text><text x="275" y="262.073" fill="#000" font-size="14" textLength="197.142">Reverse blocking if required</text></g><!--entity CFG--><g class="entity" data-qualified-name="CFG" id="ent0004" data-source-line="9"><rect x="285.41" y="44.297" width="254.425" height="68.891" fill="#F1F1F1" style="stroke:#181818;stroke-width:0.5;" rx="2.5" ry="2.5"/><text x="295.41" y="67.292" fill="#000" font-size="14" textLength="86.563">R201 / C203</text><text x="295.41" y="83.589" fill="#000" font-size="14" textLength="234.425">ILIM / fault timer / ramp networks</text><text x="295.41" y="99.886" fill="#000" font-size="14" textLength="213.363">Selected controller circuit TBD</text></g><!--entity OUT--><g class="entity" data-qualified-name="OUT" id="ent0005" data-source-line="10"><rect x="950.1" y="396.937" width="281.03" height="52.594" fill="#F1F1F1" style="stroke:#181818;stroke-width:0.5;" rx="2.5" ry="2.5"/><text x="960.1" y="419.932" fill="#000" font-size="14" textLength="87.616">C202 / D201</text><text x="960.1" y="436.229" fill="#000" font-size="14" textLength="261.03">Output decoupling / connector clamp</text></g><!--entity CONN--><g class="entity" data-qualified-name="CONN" id="ent0006" data-source-line="11"><rect x="285.95" y="388.787" width="253.338" height="68.891" fill="#F1F1F1" style="stroke:#181818;stroke-width:0.5;" rx="2.5" ry="2.5"/><text x="295.95" y="411.782" fill="#000" font-size="14" textLength="30.851">J201</text><text x="295.95" y="428.079" fill="#000" font-size="14" textLength="233.338">Supply contact(s): allocation TBD</text><text x="295.95" y="444.376" fill="#000" font-size="14" textLength="232.962">Return contact(s): allocation TBD</text></g><!--entity LOAD--><g class="entity" data-qualified-name="LOAD" id="ent0007" data-source-line="12"><rect x="388.66" y="543.647" width="261.917" height="52.594" fill="#F1F1F1" style="stroke:#181818;stroke-width:0.5;" rx="2.5" ry="2.5"/><text x="398.66" y="566.642" fill="#000" font-size="14" textLength="149.311">Harness + peripheral</text><text x="398.66" y="582.939" fill="#000" font-size="14" textLength="241.917">Load voltage / steady / inrush TBD</text></g><!--entity MCU--><g class="entity" data-qualified-name="MCU" id="ent0008" data-source-line="13"><rect x="41.86" y="535.497" width="235.523" height="68.891" fill="#F1F1F1" style="stroke:#181818;stroke-width:0.5;" rx="2.5" ry="2.5"/><text x="51.86" y="558.492" fill="#000" font-size="14" textLength="114.632">U105 supervisor</text><text x="51.86" y="574.789" fill="#000" font-size="14" textLength="215.523">Hardware-safe default enables</text><text x="51.86" y="591.086" fill="#000" font-size="14" textLength="212.734">Voltage and current telemetry</text></g><!--entity RTN--><g class="entity" data-qualified-name="RTN" id="ent0009" data-source-line="14"><rect x="1133.02" y="543.647" width="221.188" height="52.594" fill="#F1F1F1" style="stroke:#181818;stroke-width:0.5;" rx="2.5" ry="2.5"/><text x="1143.02" y="566.642" fill="#000" font-size="14" textLength="67.765">PWR_RTN</text><text x="1143.02" y="582.939" fill="#000" font-size="14" textLength="201.188">Sized intentional return path</text></g><!--entity CHASSIS--><g class="entity" data-qualified-name="CHASSIS" id="ent0010" data-source-line="15"><rect x="761.89" y="543.647" width="219.459" height="52.594" fill="#F1F1F1" style="stroke:#181818;stroke-width:0.5;" rx="2.5" ry="2.5"/><text x="771.89" y="566.642" fill="#000" font-size="14" textLength="60.669">CHASSIS</text><text x="771.89" y="582.939" fill="#000" font-size="14" textLength="199.459">Approved shield termination</text></g><g class="entity" data-qualified-name="GMN25" id="ent0026" data-source-line="33"><path d="M594.88,197.517 L594.88,228.777 L560.46,232.777 L594.88,236.777 L594.88,268.048 A0,0 0 0 0 594.88,268.048 L894.358,268.048 A0,0 0 0 0 894.358,268.048 L894.358,207.517 L884.358,197.517 L594.88,197.517 A0,0 0 0 0 594.88,197.517" style="stroke:#181818;stroke-width:0.5;" fill="#FEFFDD"/><path d="M884.358,197.517 L884.358,207.517 L894.358,207.517 L884.358,197.517" style="stroke:#181818;stroke-width:0.5;" fill="#FEFFDD"/><text x="600.88" y="214.584" fill="#000" font-size="13" textLength="278.478">Functional example: TPS25982 family on a</text><text x="600.88" y="229.717" fill="#000" font-size="13" textLength="265.154">compatible protected rail, not a selected</text><text x="600.88" y="244.849" fill="#000" font-size="13" textLength="220.733">automotive raw-battery interface.</text><text x="600.88" y="259.982" fill="#000" font-size="13" textLength="269.395">Confirm exact reverse-blocking behavior.</text></g><g class="entity" data-qualified-name="GMN28" id="ent0029" data-source-line="39"><path d="M573.93,387.967 L573.93,419.237 L539.71,423.237 L573.93,427.237 L573.93,458.498 A0,0 0 0 0 573.93,458.498 L915.303,458.498 A0,0 0 0 0 915.303,458.498 L915.303,397.967 L905.303,387.967 L573.93,387.967 A0,0 0 0 0 573.93,387.967" style="stroke:#181818;stroke-width:0.5;" fill="#FEFFDD"/><path d="M905.303,387.967 L905.303,397.967 L915.303,397.967 L905.303,387.967" style="stroke:#181818;stroke-width:0.5;" fill="#FEFFDD"/><text x="579.93" y="405.034" fill="#000" font-size="13" textLength="320.373">Parallel contacts do not guarantee equal current.</text><text x="579.93" y="420.167" fill="#000" font-size="13" textLength="282.813">Total-current protection may miss overload</text><text x="579.93" y="435.299" fill="#000" font-size="13" textLength="187.751">of a single surviving contact.</text><text x="579.93" y="450.432" fill="#000" font-size="13" textLength="285.492">Connector pin numbers remain unassigned.</text></g><g class="entity" data-qualified-name="GMN31" id="ent0032" data-source-line="45"><path d="M299.63,665.387 L299.63,720.785 A0,0 0 0 0 299.63,720.785 L739.601,720.785 A0,0 0 0 0 739.601,720.785 L739.601,675.387 L729.601,665.387 L523.62,665.387 L519.62,596.637 L515.62,665.387 L299.63,665.387 A0,0 0 0 0 299.63,665.387" style="stroke:#181818;stroke-width:0.5;" fill="#FEFFDD"/><path d="M729.601,665.387 L729.601,675.387 L739.601,675.387 L729.601,665.387" style="stroke:#181818;stroke-width:0.5;" fill="#FEFFDD"/><text x="305.63" y="682.454" fill="#000" font-size="13" textLength="406.796">Inductive actuators need dedicated driver and clamp analysis.</text><text x="305.63" y="697.587" fill="#000" font-size="13" textLength="366.526">Power-over-coax requires separate injection/link design.</text><text x="305.63" y="712.719" fill="#000" font-size="13" textLength="418.971">Warning-light lamp loads are not this generic peripheral branch.</text></g><!--link RAIL to SW--><g class="link" data-entity-1="ent0001" data-entity-2="ent0003" id="lnk11" data-source-line="17" data-link-type="dependency"><path d="M802.06,105.527 C730.97,128.577 630.266,161.225 547.006,188.215" style="stroke:#181818;stroke-width:1;" fill="none" id="RAIL-to-SW"/><polygon points="542.25,189.757,552.045,190.787,547.006,188.215,549.578,183.176,542.25,189.757" fill="#181818" style="stroke:#181818;stroke-width:1;stroke-linejoin:miter;stroke-miterlimit:10;"/><text x="676.62" y="156.254" fill="#000" font-size="13" textLength="33.439">input</text></g><!--link RAIL to CIN--><g class="link" data-entity-1="ent0001" data-entity-2="ent0002" id="lnk12" data-source-line="18" data-link-type="dependency"><path d="M914.15,105.417 C975.26,153.627 1102.555,254.08 1163.435,302.12" style="stroke:#181818;stroke-width:1;" fill="none" id="RAIL-to-CIN"/><polygon points="1167.36,305.217,1162.773,296.502,1163.435,302.12,1157.817,302.782,1167.36,305.217" fill="#181818" style="stroke:#181818;stroke-width:1;stroke-linejoin:miter;stroke-miterlimit:10;"/><text x="981.62" y="156.254" fill="#000" font-size="13" textLength="62.036">shunt tap</text></g><!--link CIN to RTN--><g class="link" data-entity-1="ent0002" data-entity-2="ent0009" id="lnk13" data-source-line="19" data-link-type="association"><path d="M1229.08,358.447 C1236.88,366.997 1244.32,377.117 1248.62,387.967 C1269.24,439.977 1258.77,507.157 1250.47,543.267" style="stroke:#181818;stroke-width:1;" fill="none" id="CIN-RTN"/></g><!--link CFG to SW--><g class="link" data-entity-1="ent0004" data-entity-2="ent0003" id="lnk14" data-source-line="20" data-link-type="dependency"><path d="M412.62,113.487 C412.62,135.967 412.62,160.687 412.62,184.707" style="stroke:#181818;stroke-width:1;stroke-dasharray:7,7;" fill="none" id="CFG-to-SW"/><polygon points="412.62,189.707,416.62,180.707,412.62,184.707,408.62,180.707,412.62,189.707" fill="#181818" style="stroke:#181818;stroke-width:1;stroke-linejoin:miter;stroke-miterlimit:10;"/><text x="413.62" y="156.254" fill="#000" font-size="13" textLength="156.603">controller-specific setup</text></g><!--link SW to CONN--><g class="link" data-entity-1="ent0003" data-entity-2="ent0006" id="lnk15" data-source-line="21" data-link-type="dependency"><path d="M412.62,275.607 C412.62,309.547 412.62,351.787 412.62,383.377" style="stroke:#181818;stroke-width:1;" fill="none" id="SW-to-CONN"/><polygon points="412.62,388.377,416.62,379.377,412.62,383.377,408.62,379.377,412.62,388.377" fill="#181818" style="stroke:#181818;stroke-width:1;stroke-linejoin:miter;stroke-miterlimit:10;"/><text x="413.62" y="336.234" fill="#000" font-size="13" textLength="41.583">VBR_n</text></g><!--link SW to OUT--><g class="link" data-entity-1="ent0003" data-entity-2="ent0005" id="lnk16" data-source-line="22" data-link-type="dependency"><path d="M560.57,274.907 C693.83,311.947 880.743,363.898 993.373,395.198" style="stroke:#181818;stroke-width:1;" fill="none" id="SW-to-OUT"/><polygon points="998.19,396.537,990.59,390.273,993.373,395.198,988.448,397.981,998.19,396.537" fill="#181818" style="stroke:#181818;stroke-width:1;stroke-linejoin:miter;stroke-miterlimit:10;"/><text x="853.62" y="336.234" fill="#000" font-size="13" textLength="107.751">VBR_n shunt tap</text></g><!--link OUT to RTN--><g class="link" data-entity-1="ent0005" data-entity-2="ent0009" id="lnk17" data-source-line="23" data-link-type="association"><path d="M1169.86,449.907 C1189.07,459.387 1207.98,471.997 1221.62,488.497 C1234.35,503.897 1239.75,526.067 1242.02,543.237" style="stroke:#181818;stroke-width:1;" fill="none" id="OUT-RTN"/></g><!--link CONN to LOAD--><g class="link" data-entity-1="ent0006" data-entity-2="ent0007" id="lnk18" data-source-line="24" data-link-type="dependency"><path d="M539.63,453.617 C570.87,463.507 598.14,475.397 607.62,488.497 C622.6,509.207 606.954,526.112 582.284,540.702" style="stroke:#181818;stroke-width:1;" fill="none" id="CONN-to-LOAD"/><polygon points="577.98,543.247,587.763,542.108,582.284,540.702,583.69,535.222,577.98,543.247" fill="#181818" style="stroke:#181818;stroke-width:1;stroke-linejoin:miter;stroke-miterlimit:10;"/><text x="614.62" y="501.564" fill="#000" font-size="13" textLength="184">fused/protected supply path</text></g><!--link LOAD to CONN--><g class="link" data-entity-1="ent0007" data-entity-2="ent0006" id="lnk19" data-source-line="25" data-link-type="dependency"><path d="M444.07,543.247 C427.61,533.987 412.25,521.677 402.62,505.497 C394.18,491.327 394.228,478.165 398.128,462.695" style="stroke:#181818;stroke-width:1;" fill="none" id="LOAD-to-CONN"/><polygon points="399.35,457.847,393.271,465.596,398.128,462.695,401.029,467.552,399.35,457.847" fill="#181818" style="stroke:#181818;stroke-width:1;stroke-linejoin:miter;stroke-miterlimit:10;"/><text x="403.62" y="501.564" fill="#000" font-size="13" textLength="195.394">dedicated return conductor(s)</text></g><!--link CONN to RTN--><g class="link" data-entity-1="ent0006" data-entity-2="ent0009" id="lnk20" data-source-line="26" data-link-type="dependency"><path d="M539.6,455.657 C545.34,456.697 551.03,457.647 556.62,458.497 C753.49,488.317 808.29,449.877 1003.62,488.497 C1036.44,494.987 1110.405,520.514 1168.775,541.514" style="stroke:#181818;stroke-width:1;" fill="none" id="CONN-to-RTN"/><polygon points="1173.48,543.207,1166.366,536.396,1168.775,541.514,1163.657,543.924,1173.48,543.207" fill="#181818" style="stroke:#181818;stroke-width:1;stroke-linejoin:miter;stroke-miterlimit:10;"/><text x="1061.62" y="501.564" fill="#000" font-size="13" textLength="141.127">branch return current</text></g><!--link MCU to SW--><g class="link" data-entity-1="ent0008" data-entity-2="ent0003" id="lnk21" data-source-line="27" data-link-type="dependency"><path d="M168.46,535.237 C179.6,497.007 201.39,434.027 234.62,387.967 C266.43,343.867 309.227,306.973 346.857,278.813" style="stroke:#181818;stroke-width:1;stroke-dasharray:7,7;" fill="none" id="MCU-to-SW"/><polygon points="350.86,275.817,341.258,278.007,346.857,278.813,346.051,284.412,350.86,275.817" fill="#181818" style="stroke:#181818;stroke-width:1;stroke-linejoin:miter;stroke-miterlimit:10;"/><text x="235.62" y="427.804" fill="#000" font-size="13" textLength="32.678">EN_n</text></g><!--link SW to MCU--><g class="link" data-entity-1="ent0003" data-entity-2="ent0008" id="lnk22" data-source-line="28" data-link-type="dependency"><path d="M264.67,251.537 C178.86,270.277 77.4,308.797 23.62,387.967 C6,413.897 10.14,430.197 23.62,458.497 C38.92,490.627 64.485,513.676 92.245,532.256" style="stroke:#181818;stroke-width:1;stroke-dasharray:7,7;" fill="none" id="SW-to-MCU"/><polygon points="96.4,535.037,91.146,526.707,92.245,532.256,86.696,533.355,96.4,535.037" fill="#181818" style="stroke:#181818;stroke-width:1;stroke-linejoin:miter;stroke-miterlimit:10;"/><text x="24.62" y="427.804" fill="#000" font-size="13" textLength="163.497">FAULT_n / IMON_n / PG_n</text></g><!--link CONN to MCU--><g class="link" data-entity-1="ent0006" data-entity-2="ent0008" id="lnk23" data-source-line="29" data-link-type="dependency"><path d="M297.49,458.087 C276.76,466.497 255.93,476.587 237.62,488.497 C218.21,501.117 203.282,515.623 189.342,531.563" style="stroke:#181818;stroke-width:1;stroke-dasharray:7,7;" fill="none" id="CONN-to-MCU"/><polygon points="186.05,535.327,194.986,531.185,189.342,531.563,188.964,525.919,186.05,535.327" fill="#181818" style="stroke:#181818;stroke-width:1;stroke-linejoin:miter;stroke-miterlimit:10;"/><text x="238.62" y="501.564" fill="#000" font-size="13" textLength="150.77">protected VBR_n sense</text></g><!--link CONN to CHASSIS--><g class="link" data-entity-1="ent0006" data-entity-2="ent0010" id="lnk24" data-source-line="30" data-link-type="association"><path d="M539.66,455.297 C545.38,456.427 551.05,457.507 556.62,458.497 C666.79,478.147 708.7,434.327 806.62,488.497 C829.24,501.017 846.98,524.907 858.17,543.407" style="stroke:#181818;stroke-width:1;stroke-dasharray:7,7;" fill="none" id="CONN-CHASSIS"/><text x="830.62" y="501.564" fill="#000" font-size="13" textLength="164.671">shield bond strategy TBD</text></g><g class="legend" data-source-line="49"><rect x="459.219" y="741.785" width="442.77" height="58.891" fill="#DDD" style="stroke:#000;stroke-width:1;" rx="7.5" ry="7.5"/><text x="464.219" y="759.78" fill="#000" font-size="14" textLength="270.484">CONCEPTUAL / NOT FOR FABRICATION</text><text x="464.219" y="776.077" fill="#000" font-size="14" textLength="394.304">All component values, trip limits and layout details TBD.</text><text x="464.219" y="792.374" fill="#000" font-size="14" textLength="432.77">Dotted lines indicate sensing/control/shield intent, not power.</text></g><?plantuml-src VLLDR-Cs4BthLmpsrAAhU3V50jiS2ZXEid6HjGtRIIu60beQsznGfCeFPzrVtqTIZfKKwCMGgT6yzsRU3BtqYcdXhVnHioNBBGlFDRLiPRjZAnIjhT3LZaggZAwuzG5dUDHSURcN_b1uqv8tj3RUcuPgQUCRemltB7Khh6WGthH6i_OBVm1S311wgxWNudQYDYzIRsaZbEEYU0sY3m-pw_buTlkaLth12kSWQ7aRLAAA3C6J5L9z8E5eFXpVzJyUdN_wlD9tfWBj75fpPKAhW9K-68qd_VZx57yhjxlIoPgfjSPdGJGWlWcELteKh8KQKhAHddu3UMCzVeE71eq3A6fNUivxjevfhKpr7AN93NZ_7L2XEa4l7ll8So030uH_N-dntVWx_cn4K9wyRD2SGKfBclsBiS-kLmoqmrkZ588gQQi0KilBgwpkvjkxQfmZqLKIEGt-RJtmfkkiGIO5j9HZUh_iv_WhVRm8RQiE2LfK_XVtwmK91Q4YbGhmKRyFLlzFI6OudRnfmAsmcfr35KycZ0qKDUsDycBBeEayY_g01wbjSBlNP7VJuTMRRdx-z8LSGAQzTCQYiSBMBy9owSI68JqNcBLOAqP97pe4eL7LhiiUPMxOsqD2-3wwxmFC7kTFy-K4zP3_93DwV09vS9lDyblXTzcPopSwHxV3nMAyMEbX2u_jyR7RILOry6mZTIfIBb0EB8feRIhBF-4RkiXcFft1nZY41oDZqHRnVracK7Y0piwwpqvUALtBbTp8YXoOjWLUfqJe1-8UBkTF-dW61noFUX3nz0WHFugHiG48tM1Ewa4tEr5QTakiHP52UaWrrx8IUQYFXgb3z20iSyeC60Hts-WOcLjKe2adXTUJJ3mUn1SNT3Eylri-nG4UVvzEqiFi6u9IxbFOYMwdb3KsKHTqR4CgSkhJ6ZHXH0lgsqDqO55e922BtU79RE9u4zq4NNM6u9-OACKNj9mjph_yyVKSuzr8b0NJ810QroJQ3YVsgCJ5zf6Gc0G8vO57h0XOjWOR67ZYfLmB3ziSal_iHbHyXfYHqHjfcuXROKFcRLI-RgCrxyHU6djMC8H4wk_ufyaacc51mo_gECYEQfC8RGFU0909IotU2haR4Nffl53bSO9wExGH1seanXkEjmf3ZM10GPjCO-429dKVwNLedP1kARLIamxD6aeWg17u6xHmJcurr--5T3SIqgUrG3HEleerG-8WaD1XdQB89mlM5gzjdl-u0F4arC595tdCp0l69Z8lAoD-7fUvGsFYBGP8gNzaeGFiqsVaZSpYfu_OQb1LgbJSb3cgTuHTb8hfTzBHbZLsNlNVwxSdJV4sFcTniJZJoUXwjhmVti7Ma-cIRgPpEFvoFXuDb-DfxE1GgTCTJ7kX0hkFX4k_pLUOItgLE9Xq7NXOpaL3H-9Nm45T80SwfSvrIgC1EODkcmowaSZhBzkrZSLAl3FZVm40?></g></svg>